<svg width="175" height="52" fill="none" xmlns="http://www.w3.org/2000/svg"><path d="M7.765 23.383l2.646-1.31 4.181-6.281 1.28-.524 1.365 6.37-1.792.261-1.365-2.617-1.024 4.1h4.523l4.693 1.222 1.877-1.221 3.158 3.315 1.365-6.107 2.219 2.268 1.365-1.92 2.219-.61 3.242-3.054.512-1.483 2.646.436 1.11 1.483L40.02 21.9l4.864-2.53v-1.221l1.878-.437 2.048 2.094 2.048-2.53V15.53l3.328-2.355 1.365-2.007h2.133l3.755-7.765L64.683 0l1.194 1.92L64 4.361l.683 1.57 1.792.35 1.45 6.456v5.41l2.56 3.577 1.28 4.973-4.437-2.88-1.963-8.288-1.194.262-.17 5.584-3.244 5.322-.938 8.114 2.218.524.94-1.135 2.132 2.443 1.622 7.33-.17 4.71h-2.049l-.768-6.63-1.45 2.006-3.158-.698-2.56-2.18-2.901 1.046.17 4.712-2.304.61-3.413 2.618-4.096-.524-1.621-.96-2.56.437.853 1.047-2.048 1.221-1.621-.785L33.963 52l-4.694-2.356-1.792-4.188-1.536.175-1.792-1.483-.085-1.135-5.717-.61-.939 3.14-3.584-1.657-1.792-3.054h-3.84l-.427 4.886-2.218.698-1.11 4.45-.853-.785L0 40.745l4.267-2.094-.683-4.1-.683-4.189 1.878-2.704L4.18 26l2.56-2.792 1.024.175zm56.747 10.295l3.925 5.933 1.28-.524-1.62-2.443-3.585-3.839v.873zm-40.107-12.04v-1.745l2.987-2.182 2.56-1.308h-2.987l-2.645 1.57-1.621 1.483v2.182h1.706zM80.621 41.61h4.74v-5.762h1.635l3.069 5.761h5.147l-3.545-6.511c1.858-.895 2.966-2.591 2.966-5.012 0-3.716-2.6-5.931-6.477-5.931H80.62v17.454zm4.74-9.444v-4.227h1.67c1.661 0 2.659.647 2.659 2.147 0 1.492-.998 2.08-2.66 2.08h-1.67zM105.21 35.882c.008 1.295-.742 2.08-1.91 2.08-1.184 0-1.866-.785-1.875-2.08v-7.364h-4.704v8.352c.008 2.864 1.815 4.91 4.568 4.91 1.952 0 3.452-.99 4.023-2.66h.136v2.49h4.466V28.517h-4.704v7.364zM124.273 32.78c-.12-2.77-2.421-4.432-6.205-4.432-3.741 0-6.051 1.534-6.034 4.261-.017 2.063 1.321 3.384 3.989 3.852l2.318.41c1.023.187 1.483.46 1.5.954-.017.545-.639.852-1.5.852-1.065 0-1.815-.46-1.943-1.295h-4.671c.256 2.684 2.574 4.466 6.58 4.466 3.622 0 6.29-1.764 6.307-4.569-.017-1.934-1.313-3.06-3.989-3.545l-2.659-.477c-.997-.18-1.278-.537-1.261-.92-.017-.546.656-.853 1.465-.853.929 0 1.705.494 1.773 1.295h4.33zM138.382 32.78c-.119-2.77-2.42-4.432-6.204-4.432-3.742 0-6.052 1.534-6.035 4.261-.017 2.063 1.321 3.384 3.989 3.852l2.318.41c1.023.187 1.483.46 1.5.954-.017.545-.639.852-1.5.852-1.065 0-1.815-.46-1.943-1.295h-4.67c.255 2.684 2.574 4.466 6.579 4.466 3.622 0 6.29-1.764 6.307-4.569-.017-1.934-1.312-3.06-3.989-3.545l-2.659-.477c-.997-.18-1.278-.537-1.261-.92-.017-.546.656-.853 1.466-.853.929 0 1.704.494 1.773 1.295h4.329zM140.526 41.61h4.704V28.517h-4.704V41.61zm2.352-14.456c1.278 0 2.318-.963 2.318-2.147 0-1.185-1.04-2.148-2.318-2.148-1.279 0-2.318.963-2.318 2.148 0 1.184 1.039 2.147 2.318 2.147zM151.275 41.814c1.704 0 2.991-.58 3.784-2.046h.102v1.841h4.398v-8.966c0-2.42-2.293-4.295-6.034-4.295-3.912 0-5.838 2.045-6 4.431h4.329c.111-.81.708-1.193 1.603-1.193.818 0 1.397.375 1.397 1.057v.034c0 .759-.835.997-3.034 1.16-2.701.195-4.806 1.286-4.806 4.158 0 2.608 1.755 3.819 4.261 3.819zm1.534-2.966c-.801 0-1.364-.392-1.364-1.125 0-.674.478-1.194 1.569-1.364.75-.12 1.38-.273 1.875-.477v1.09c0 1.194-1.015 1.876-2.08 1.876zM166.511 34.245c.009-1.295.742-2.08 1.909-2.08 1.185 0 1.884.785 1.875 2.08v7.364H175v-8.352c.009-2.847-1.79-4.91-4.568-4.91-1.926 0-3.452 1.006-4.023 2.66h-.136v-2.489h-4.466V41.61h4.704v-7.364z" fill="#fff"/></svg>